<svg xmlns="http://www.w3.org/2000/svg" viewBox="0 0 498.7 498.7">
  <path d="M385.95 40.7a7.18 7.18 0 0 0-7-.5l-22.31 10.5c-1.79-1-3.61-1.93-5.43-2.85l-4.18-24.26a7.21 7.21 0 0 0-11.36-4.58l-19.8 14.54c-2-.62-4-1.19-5.95-1.75L301.1 8.88a7.21 7.21 0 0 0-12-2.29L272.46 24.7c-2.05-.21-4.1-.38-6.16-.54l-13.12-20.8a7.21 7.21 0 0 0-12.25.11l-12.77 21.07c-2 .19-4.06.42-6.08.67l-17-17.87a7.21 7.21 0 0 0-12 2.51L184.74 33c-2 .58-3.89 1.18-5.83 1.82l-20.17-14.2a7.26 7.26 0 0 0-7-.74 7.17 7.17 0 0 0-4.3 5.54l-3.7 24.28c-1.81 1-3.63 1.94-5.43 3l-22.45-10a7.2 7.2 0 0 0-10.12 6.9l1.08 24.53c-1.6 1.31-3.18 2.62-4.75 4L78.11 72.7a7.22 7.22 0 0 0-8.59 8.75l5.87 23.9c-1.3 1.57-2.58 3.17-3.84 4.78l-24.62-.63a7.21 7.21 0 0 0-6.71 10.25l10.42 22.32c-1 1.8-1.92 3.6-2.84 5.42l-24.25 4.21a7.21 7.21 0 0 0-4.59 11.37l14.54 19.79c-.62 2-1.19 4-1.75 6l-22.92 8.75a7.19 7.19 0 0 0-2.27 12l18.12 16.58c-.22 2.06-.39 4.11-.54 6.17L3.35 245.51a7.22 7.22 0 0 0 .12 12.26l21.06 12.76c.19 2 .42 4.06.66 6.09l-17.86 17a7.21 7.21 0 0 0 2.51 12l23.15 8.41c.58 2 1.2 3.9 1.84 5.83l-14.21 20.09a7.19 7.19 0 0 0 4.79 11.27l24.33 3.72q1.44 2.73 3 5.43l-10 22.45a7.21 7.21 0 0 0 6.91 10.13l24.53-1.09c1.31 1.6 2.63 3.19 4 4.76l-5.44 23.95a7.2 7.2 0 0 0 8.74 8.58l23.91-5.86c1.56 1.3 3.16 2.58 4.77 3.85l-.63 24.62a7.21 7.21 0 0 0 10.21 6.71l22.31-10.42c1.81 1 3.62 1.92 5.44 2.83l4.18 24.26a7.21 7.21 0 0 0 11.38 4.56l19.79-14.53q3 .92 6 1.75l8.81 22.92a7.22 7.22 0 0 0 12 2.28L226.23 474c2 .21 4.11.37 6.16.54l13.13 20.78a7.2 7.2 0 0 0 12.25-.11l12.77-21.07c2-.19 4.05-.4 6.07-.66l17 17.86a7.21 7.21 0 0 0 12-2.5l8.37-23.14c1.95-.58 3.9-1.18 5.84-1.82l20.12 14.2a7.2 7.2 0 0 0 11.27-4.8l3.72-24.29c1.83-1 3.64-1.94 5.43-3l22.45 10a7.21 7.21 0 0 0 10.13-6.9l-1.09-24.54c1.6-1.31 3.19-2.63 4.76-4l24 5.41a7.21 7.21 0 0 0 8.58-8.75l-5.86-23.9c1.29-1.57 2.58-3.17 3.84-4.77l24.61.62a7.21 7.21 0 0 0 6.72-10.24l-10.41-22.32q1.44-2.7 2.84-5.43l24.24-4.18a7.21 7.21 0 0 0 4.57-11.29l-14.53-19.79c.61-2 1.18-4 1.74-5.95l22.92-8.82a7.2 7.2 0 0 0 2.28-12l-18.12-16.58c.21-2.06.38-4.11.54-6.16l20.78-13.13a7.21 7.21 0 0 0-.11-12.26l-21.06-12.77c-.2-2-.41-4.05-.67-6.07l17.86-17a7.21 7.21 0 0 0-2.5-12l-23.13-8.47c-.58-2-1.18-3.9-1.82-5.84l14.2-20.12a7.2 7.2 0 0 0-4.79-11.28l-24.3-3.72c-1-1.82-1.94-3.63-2.95-5.43l10-22.46a7.21 7.21 0 0 0-6.91-10.12l-24.54 1.08q-1.95-2.4-4-4.75l5.4-24a7.21 7.21 0 0 0-8.74-8.59l-23.9 5.87c-1.57-1.3-3.17-2.58-4.78-3.83l.63-24.62a7.19 7.19 0 0 0-3.29-6.19Zm-24.54 36.69a14.83 14.83 0 1 1-11.08-2.36 14.73 14.73 0 0 1 11.08 2.36Zm15.1 39.06c39.28 37.61 59.12 88.35 56.67 142.12l-37.16 24.07a13.52 13.52 0 0 0-4 18.68l20.86 31.38c-27.69 52.69-75.53 84.45-123.3 94.05l-23.09-23.42a13.5 13.5 0 0 0-19.11-.09l-25.43 25.46c-24.89-3.86-49.16-13.49-71.6-28.18a181.92 181.92 0 0 1-54.85-56.46l12.64-32.87a13.49 13.49 0 0 0-7.72-17.46L71.81 282.7c-8.78-59 3.54-105.66 38.28-149.9l33.65 5.13a13.53 13.53 0 0 0 15.52-11.17l.33-2 .15.24c3.31-21.39 5-31.65 5.91-37.36 41.83-21.49 94.31-31.18 154.38-7.82l6 32.27a13.49 13.49 0 0 0 15.73 10.83Zm-229.94-9.23a14.9 14.9 0 1 1-29.43-4.62c1.33-8.08 10.14-13.49 17-12.25s13.2 6.84 12.43 16.87ZM435.3 286.87a15 15 0 0 1 4.11 4.21 14.78 14.78 0 1 1-4.11-4.21ZM81.47 303.79a14.81 14.81 0 1 1-2.68-1.36 14.65 14.65 0 0 1 2.68 1.36ZM264.86 424.7a15.31 15.31 0 0 1 2.31 1.91 14.77 14.77 0 1 1-2.31-1.91Z" />
  <path d="M356.84 334.06h-76.85a30.31 30.31 0 0 0-21.67-21.68v-16.21h64.64a18.8 18.8 0 0 0 18.72-18.72v-83.82a18.8 18.8 0 0 0-18.72-18.72h-64.64a3.49 3.49 0 0 1-3-1.74l-11.37-19.33a18.88 18.88 0 0 0-15.92-9.24h-49.51a18.79 18.79 0 0 0-18.72 18.71v114.14a18.8 18.8 0 0 0 18.72 18.72h64.64v16.21a30.31 30.31 0 0 0-21.67 21.68h-76.85a7.58 7.58 0 0 0 0 15.16h76.85a30.31 30.31 0 0 0 58.5 0h76.85a7.58 7.58 0 0 0 0-15.16Zm-181.89-56.61V163.31a3.57 3.57 0 0 1 3.57-3.56H228a3.51 3.51 0 0 1 3 1.75l11.29 19.32a18.73 18.73 0 0 0 16 9.25h64.75a3.56 3.56 0 0 1 3.56 3.56v83.82a3.56 3.56 0 0 1-3.56 3.56H178.52a3.57 3.57 0 0 1-3.57-3.56Zm75.79 79.34a15.16 15.16 0 1 1 15.16-15.15 15.15 15.15 0 0 1-15.16 15.15Z"/>
</svg>
